<?xml version="1.0" encoding="iso-8859-1"?>
<!-- Generator: Adobe Illustrator 18.1.1, SVG Export Plug-In . SVG Version: 6.00 Build 0)  -->
<svg version="1.1" id="Capa_1" xmlns="http://www.w3.org/2000/svg" xmlns:xlink="http://www.w3.org/1999/xlink" x="0px" y="0px"
	 viewBox="0 0 520.2 520.2" style="enable-background:new 0 0 520.2 520.2;" xml:space="preserve">
<g>
	<g>
		<path d="M260.1,142.8c39.372,0,71.4-32.028,71.4-71.4S299.472,0,260.1,0s-71.4,32.028-71.4,71.4S220.728,142.8,260.1,142.8z
			 M260.1,20.4c28.152,0,51,22.848,51,51s-22.848,51-51,51s-51-22.848-51-51S231.948,20.4,260.1,20.4z"/>
		<path d="M229.5,76.5c2.856,0,5.1-2.244,5.1-5.1c0-14.076,11.424-25.5,25.5-25.5c2.856,0,5.1-2.244,5.1-5.1s-2.244-5.1-5.1-5.1
			c-19.584,0-35.7,16.116-35.7,35.7C224.4,74.256,226.644,76.5,229.5,76.5z"/>
		<path d="M260.1,188.7c-39.372,0-71.4,32.028-71.4,71.4s32.028,71.4,71.4,71.4s71.4-32.028,71.4-71.4S299.472,188.7,260.1,188.7z
			 M260.1,311.1c-28.152,0-51-22.848-51-51s22.848-51,51-51s51,22.848,51,51S288.252,311.1,260.1,311.1z"/>
		<path d="M260.1,224.4c-19.584,0-35.7,16.116-35.7,35.7c0,2.856,2.244,5.1,5.1,5.1s5.1-2.244,5.1-5.1
			c0-14.076,11.424-25.5,25.5-25.5c2.856,0,5.1-2.244,5.1-5.1S262.956,224.4,260.1,224.4z"/>
		<path d="M260.1,377.4c-39.372,0-71.4,32.028-71.4,71.4s32.028,71.4,71.4,71.4s71.4-32.028,71.4-71.4S299.472,377.4,260.1,377.4z
			 M260.1,499.8c-28.152,0-51-22.848-51-51s22.848-51,51-51s51,22.848,51,51C311.1,476.952,288.252,499.8,260.1,499.8z"/>
		<path d="M260.1,413.1c-19.584,0-35.7,16.116-35.7,35.7c0,2.856,2.244,5.1,5.1,5.1s5.1-2.244,5.1-5.1
			c0-14.076,11.424-25.5,25.5-25.5c2.856,0,5.1-2.244,5.1-5.1S262.956,413.1,260.1,413.1z"/>
	</g>
</g>
<g>
</g>
<g>
</g>
<g>
</g>
<g>
</g>
<g>
</g>
<g>
</g>
<g>
</g>
<g>
</g>
<g>
</g>
<g>
</g>
<g>
</g>
<g>
</g>
<g>
</g>
<g>
</g>
<g>
</g>
</svg>
